<?xml version="1.0" standalone="no"?>
<!DOCTYPE svg PUBLIC "-//W3C//DTD SVG 20010904//EN"
 "http://www.w3.org/TR/2001/REC-SVG-20010904/DTD/svg10.dtd">
<svg version="1.0" xmlns="http://www.w3.org/2000/svg"
 width="256.000000pt" height="256.000000pt" viewBox="0 0 256.000000 256.000000"
 preserveAspectRatio="xMidYMid meet">

<g transform="translate(0.000000,256.000000) scale(0.100000,-0.100000)"
fill="#000000" stroke="none">
<path d="M1165 2152 c-55 -21 -115 -46 -133 -56 -54 -28 -166 -141 -202 -205
-19 -33 -44 -65 -55 -71 -53 -29 -85 -131 -85 -271 0 -53 4 -72 22 -94 23 -29
32 -94 21 -148 l-6 -29 -33 38 c-28 34 -33 37 -40 21 -4 -13 2 -27 20 -45 22
-24 27 -42 38 -131 10 -88 10 -104 -3 -112 -8 -5 -9 -9 -3 -9 7 0 13 -43 17
-122 7 -142 23 -210 76 -322 56 -118 116 -187 207 -240 103 -60 187 -80 317
-74 86 4 114 10 177 37 181 77 308 276 351 550 6 45 18 81 28 90 9 9 11 12 4
7 -20 -13 -16 37 11 128 17 58 30 84 50 98 28 21 36 58 12 58 -8 0 -26 -15
-41 -32 l-28 -33 5 72 c3 61 8 77 30 100 36 38 48 90 48 206 0 105 -9 134 -54
176 -14 14 -26 31 -26 38 0 25 -62 141 -100 187 -60 72 -114 112 -227 168
-102 51 -107 52 -201 55 -92 3 -103 1 -197 -35z m261 -19 c55 -18 116 -57 156
-100 22 -23 68 -118 68 -140 0 -3 -17 -3 -37 0 -40 6 -35 2 38 -27 l37 -14
-22 -74 c-32 -110 -41 -121 -107 -122 -123 -1 -485 27 -511 40 -20 10 -29 24
-33 52 -3 20 -9 60 -14 87 -5 28 -5 54 -1 59 5 5 32 15 62 22 39 11 43 13 15
10 l-37 -5 44 57 c62 80 106 120 162 148 58 28 112 30 180 7z m-57 -543 c118
-13 121 -15 114 -52 -8 -41 7 -48 75 -32 76 18 136 9 177 -28 31 -26 34 -27
43 -11 8 13 13 15 24 5 12 -9 13 -24 6 -74 -5 -35 -9 -128 -8 -208 0 -122 -3
-156 -21 -210 -32 -101 -39 -108 -108 -112 -58 -3 -60 -2 -65 25 -7 35 -78
103 -115 110 -14 3 -38 3 -53 0 -21 -4 -28 -2 -28 11 0 20 -16 21 -24 1 -7
-19 -136 -21 -169 -3 -34 18 -134 20 -166 3 -34 -17 -81 -70 -81 -91 0 -11 -4
-12 -19 -4 -11 5 -38 10 -60 10 -53 0 -76 30 -92 122 -11 62 -10 88 6 202 10
72 19 164 20 204 0 68 2 75 25 88 35 19 43 17 37 -6 -8 -31 9 -34 58 -10 44
21 46 22 123 5 105 -22 103 -22 116 -3 8 14 8 23 -1 37 -11 18 -9 20 15 24 50
7 86 7 171 -3z m-309 -773 c14 -6 44 -26 67 -44 97 -77 179 -91 273 -47 30 14
63 33 73 41 9 9 20 13 23 10 8 -8 -24 -35 -90 -79 -58 -38 -133 -48 -186 -25
-19 8 -61 38 -92 67 -70 62 -77 44 -12 -29 51 -57 40 -67 -24 -21 -42 30 -85
86 -97 128 -6 21 -4 23 17 17 12 -3 34 -11 48 -18z m518 -26 c2 -1 -5 -15 -15
-32 -20 -35 -71 -78 -123 -104 -33 -16 -32 -15 18 35 28 28 52 60 52 70 0 28
28 41 68 31z m-280 -68 c-10 -2 -26 -2 -35 0 -10 3 -2 5 17 5 19 0 27 -2 18
-5z"/>
<path d="M1188 1923 c23 -2 61 -2 85 0 23 2 4 4 -43 4 -47 0 -66 -2 -42 -4z"/>
<path d="M1438 1913 c7 -3 16 -2 19 1 4 3 -2 6 -13 5 -11 0 -14 -3 -6 -6z"/>
<path d="M965 1394 c-39 -10 -75 -27 -75 -35 0 -8 22 -6 73 8 21 5 21 4 1 -37
-12 -23 -14 -38 -7 -49 9 -15 106 -48 144 -50 20 -1 43 51 36 79 -7 27 10 15
34 -24 14 -22 19 -26 19 -13 0 31 -31 74 -69 95 -37 21 -120 35 -156 26z m65
-58 c0 -20 -19 -31 -32 -18 -6 6 -7 15 -4 21 10 16 36 13 36 -3z"/>
<path d="M1502 1334 c-36 -18 -66 -55 -76 -94 -6 -23 -5 -23 6 -6 52 75 66 82
60 32 -2 -18 1 -42 6 -53 10 -19 15 -19 89 -7 43 7 80 13 82 13 2 1 1 22 -2
47 -4 43 -3 46 17 41 11 -2 29 -8 39 -12 34 -14 16 13 -20 31 -53 25 -159 29
-201 8z m58 -38 c0 -8 -5 -18 -11 -22 -14 -8 -33 11 -25 25 10 16 36 13 36 -3z"/>
</g>
</svg>
